# xmcd CD database file
#
# Track frame offsets:
#	180
#	17434
#	32639
#	46593
#	64898
#	80193
#	99600
#	111259
#	126869
#	139572
#	153553
#
# Disc length: 2328 seconds
#
# Revision: 0
# Processed by: cddbd v1.5.1PL0 Copyright (c) Steve Scherf et al.
# Submitted via: cdripper 1.0.10
#
DISCID=8c09160b
DTITLE=Kris St. Louis - Boss of Love
DYEAR=1995
DGENRE=Blues
TTITLE0=Call My Landlord
TTITLE1=Boss of Love
TTITLE2=Something That Is (Just Like Love)
TTITLE3=Wild Women Don't Have The Blues
TTITLE4=Mother Nature's Not Amused
TTITLE5=I've Been Waiting For So Long
TTITLE6=Wisteria
TTITLE7=Tell Me What's The Reason
TTITLE8=The Future Is Now
TTITLE9=It Ain't Good Enough For You
TTITLE10=St. Louis Blues
EXTD=YEAR: 1995
EXTT0=
EXTT1=
EXTT2=
EXTT3=
EXTT4=
EXTT5=
EXTT6=
EXTT7=
EXTT8=
EXTT9=
EXTT10=
PLAYORDER=
